<?xml version="1.0" encoding="utf-8"?>
<!-- Generator: Adobe Illustrator 22.1.0, SVG Export Plug-In . SVG Version: 6.00 Build 0)  -->
<svg version="1.1" id="Layer_1" xmlns="http://www.w3.org/2000/svg" xmlns:xlink="http://www.w3.org/1999/xlink" x="0px" y="0px"
	 viewBox="0 0 174 174" style="enable-background:new 0 0 174 174;" xml:space="preserve">
<g>
	<path style="fill:#025830;" d="M87,10.9c-42.1,0-76.1,34.1-76.1,76.1c0,42.1,34.1,76.1,76.1,76.1c42.1,0,76.1-34.1,76.1-76.1
		C163.1,44.9,129.1,10.9,87,10.9z M87,161.1c-40.9,0-74.1-33.3-74.1-74.1c0-40.9,33.3-74.1,74.1-74.1c40.9,0,74.1,33.3,74.1,74.1
		C161.1,127.9,127.9,161.1,87,161.1z"/>
	<path style="fill:#025830;" d="M87,6C42.3,6,6,42.3,6,87c0,44.7,36.3,81,81,81c44.7,0,81-36.3,81-81C168,42.3,131.7,6,87,6z
		 M87,166c-43.6,0-79-35.4-79-79C8,43.4,43.4,8,87,8c43.6,0,79,35.4,79,79C166,130.6,130.6,166,87,166z"/>
	<path style="fill:#025830;" d="M30.9,95.4l-2.7,0.3L28,94c-0.1-1.1-0.5-2-1.1-2.5c-0.6-0.5-1.4-0.8-2.3-0.6c-1,0.1-1.7,0.5-2.1,1.2
		c-0.4,0.7-0.6,1.6-0.4,2.7l0.5,4.2l8.6-1.1L30.9,95.4z M24.2,96.2L24,94.8c-0.1-0.5,0-0.8,0.1-1.1s0.4-0.4,0.8-0.4
		c0.7-0.1,1.1,0.3,1.2,1.2l0.2,1.4L24.2,96.2z"/>
	<polygon style="fill:#025830;" points="30.5,80.5 28.5,80.4 28.3,84.9 26.9,84.8 27.1,81 25.1,80.9 24.9,84.7 23.5,84.6 23.8,80.3 
		21.8,80.2 21.5,87.1 30.2,87.5 	"/>
	<polygon style="fill:#025830;" points="31.4,75.1 26,73.8 26,73.8 32.3,71.5 32.9,69.2 24.4,67.2 23.8,69.5 28.6,70.7 28.5,70.7 
		23.1,72.6 22.4,75.4 30.9,77.5 	"/>
	
		<rect x="29.3" y="59" transform="matrix(0.3851 -0.9229 0.9229 0.3851 -39.6795 67.1876)" style="fill:#025830;" width="2.6" height="8.7"/>
	<polygon style="fill:#025830;" points="37.6,58.8 32.9,55.9 32.9,55.9 39.6,55.7 40.8,53.6 33.4,49.1 32.1,51.2 36.3,53.7 
		36.2,53.7 30.5,53.9 29,56.3 36.4,60.9 	"/>
	<path style="fill:#025830;" d="M41.7,47.2l1.2-0.9c0.4-0.3,0.6-0.4,0.8-0.5c0.2-0.1,0.4,0,0.5,0.1c0.2,0.2,0.3,0.4,0.2,0.7
		c-0.1,0.3-0.2,0.6-0.5,0.8c-0.3,0.3-0.6,0.5-0.9,0.6c-0.3,0.1-0.6,0.1-0.9-0.2l-1.7,1.8c0.8,0.6,1.6,0.7,2.4,0.5
		c0.9-0.2,1.7-0.8,2.5-1.7c0.7-0.8,1.1-1.6,1.3-2.5c0.1-0.9-0.2-1.6-0.8-2.2c-1.1-1-2.2-0.9-3.5,0L41,45c-0.3,0.3-0.6,0.4-0.8,0.5
		c-0.2,0.1-0.4,0-0.5-0.1c-0.2-0.2-0.2-0.4-0.2-0.6c0-0.3,0.2-0.5,0.4-0.8c0.3-0.3,0.6-0.5,0.9-0.6c0.3-0.1,0.6,0,0.8,0.2l1.6-1.8
		c-0.7-0.5-1.5-0.7-2.3-0.6c-0.8,0.2-1.6,0.7-2.4,1.5c-0.7,0.8-1.1,1.6-1.2,2.5c-0.1,0.9,0.2,1.6,0.8,2.1
		C39.2,48.2,40.4,48.2,41.7,47.2z"/>
	<path style="fill:#025830;" d="M50.1,42.7c0.9,0.1,1.9-0.3,2.9-1.1c1-0.8,1.6-1.6,1.8-2.5c0.2-0.9-0.1-1.8-0.8-2.8l-3.2-4.2
		l-2.1,1.5l3.1,4.1c0.3,0.4,0.5,0.8,0.5,1.2c0,0.4-0.2,0.7-0.6,1.1c-0.4,0.3-0.8,0.4-1.2,0.3c-0.4-0.1-0.7-0.4-1-0.8l-3.1-4.1
		L44.5,37l3.1,4.2C48.3,42.1,49.1,42.6,50.1,42.7z"/>
	<polygon style="fill:#025830;" points="64.9,34.5 64,32.7 60.3,34.6 57.3,28.5 55,29.7 58.8,37.5 	"/>
	<path style="fill:#025830;" d="M69.4,31.1l3.3-0.9l1,1.4l2.5-0.7l-5.7-7.4l-2.8,0.8l-0.9,9.3l2.4-0.7L69.4,31.1z M69.9,26.2
		L69.9,26.2l1.7,2.3l-2,0.6L69.9,26.2z"/>
	<polygon style="fill:#025830;" points="85.5,23.4 85.6,30.1 88.2,30.1 88.1,23.3 91,23.3 91,21.3 82.6,21.5 82.6,23.4 	"/>
	<path style="fill:#025830;" d="M97,28.1l1.3,0.2l1,3l2.7,0.5l-1.2-3.5c1.1-0.3,1.8-1,2-2.2c0.2-0.9,0-1.7-0.5-2.3
		c-0.5-0.6-1.3-1-2.4-1.2l-4.3-0.8L94,30.4l2.5,0.5L97,28.1z M97.7,24.3l1.4,0.3c0.5,0.1,0.8,0.2,1,0.4c0.2,0.2,0.2,0.5,0.2,0.8
		c-0.1,0.3-0.2,0.6-0.5,0.7c-0.2,0.1-0.6,0.1-1.1,0l-1.4-0.3L97.7,24.3z"/>
	<path style="fill:#025830;" d="M108.1,34.3c1.2,0.5,2.2,0.6,3.1,0.3c0.9-0.3,1.5-1,2-2.1l2-4.9l-2.4-1l-1.9,4.7
		c-0.2,0.5-0.5,0.9-0.8,1.1c-0.3,0.2-0.7,0.2-1.2,0c-0.5-0.2-0.8-0.5-0.9-0.9c-0.1-0.4,0-0.8,0.2-1.3l1.9-4.7l-2.4-1l-2,4.9
		c-0.4,1.1-0.4,2.1,0,2.9C106.1,33.2,106.9,33.8,108.1,34.3z"/>
	<path style="fill:#025830;" d="M117.9,39.5c1,0.6,1.9,0.9,2.7,0.7c0.9-0.1,1.6-0.6,2.3-1.3l-2.1-1.4c-0.6,0.6-1.2,0.7-1.9,0.3
		c-0.5-0.3-0.8-0.8-0.8-1.3c0-0.5,0.2-1.1,0.6-1.8c0.5-0.7,0.9-1.1,1.4-1.3c0.5-0.2,1-0.1,1.5,0.2c0.7,0.5,0.9,1.1,0.6,1.9l2.1,1.3
		c0.4-0.9,0.5-1.8,0.2-2.7c-0.2-0.8-0.8-1.6-1.8-2.2c-1.1-0.7-2.3-1-3.4-0.7c-1.1,0.3-2,1-2.8,2.1c-0.7,1.1-1,2.2-0.8,3.4
		C116.1,37.8,116.8,38.7,117.9,39.5z"/>
	<polygon style="fill:#025830;" points="130,49.5 130.7,43.2 135.6,42.9 133.6,40.9 128.7,41.4 131.4,38.7 129.5,36.9 123.5,43.2 
		125.3,45 126.8,43.5 128.2,43.4 127.7,47.3 	"/>
	<polygon style="fill:#025830;" points="137.4,60.6 139.1,59.6 137,56 142.7,52.6 141.4,50.4 134,54.8 	"/>
	
		<rect x="138.8" y="61.5" transform="matrix(0.919 -0.3943 0.3943 0.919 -13.1683 61.5375)" style="fill:#025830;" width="8.7" height="2.6"/>
	<polygon style="fill:#025830;" points="141.6,71.1 147,69.7 147,69.7 142.5,74.7 143,77 151.5,74.8 150.9,72.5 146.2,73.7 
		146.2,73.6 150.1,69.4 149.4,66.6 141,68.7 	"/>
	<polygon style="fill:#025830;" points="143.9,87.1 145.8,87 145.5,82.5 147,82.4 147.2,86.3 149.2,86.1 148.9,82.3 150.3,82.2 
		150.6,86.6 152.5,86.5 152.1,79.6 143.5,80.1 	"/>
	<path style="fill:#025830;" d="M149.8,90.5c-1.4-0.2-2.3,0.6-2.8,2.2l-0.4,1.4c-0.1,0.4-0.2,0.7-0.4,0.9c-0.1,0.2-0.3,0.2-0.5,0.2
		c-0.3,0-0.5-0.2-0.6-0.5c-0.1-0.3-0.1-0.6-0.1-1c0-0.4,0.2-0.8,0.4-1.1c0.2-0.3,0.5-0.4,0.9-0.4l0.3-2.5c-0.9,0-1.7,0.3-2.3,1
		c-0.6,0.7-0.9,1.6-1.1,2.8c-0.1,1.1,0,2,0.4,2.8c0.4,0.8,1,1.2,1.9,1.3c1.4,0.2,2.4-0.5,2.8-2.1l0.5-1.6c0.1-0.4,0.2-0.7,0.3-0.8
		c0.1-0.2,0.3-0.2,0.5-0.2c0.2,0,0.4,0.2,0.5,0.4s0.2,0.5,0.1,0.9c0,0.4-0.2,0.7-0.4,1c-0.2,0.2-0.5,0.3-0.8,0.3l-0.3,2.4
		c0.9,0,1.6-0.3,2.2-0.9c0.6-0.6,0.9-1.5,1-2.6c0.1-1,0-1.9-0.5-2.7C151.3,91,150.6,90.6,149.8,90.5z"/>
	<path style="fill:#025830;" d="M31,115.9c0.7-0.3,1.2-0.9,1.5-1.5c0.2-0.7,0.2-1.4-0.2-2.1l-0.9-2l-4.9,2.3l0.9,2
		c0.4,0.8,0.9,1.3,1.5,1.5C29.5,116.3,30.2,116.3,31,115.9z M29.1,114.9c-0.4-0.1-0.7-0.4-0.8-0.8l-0.4-0.9l3.1-1.4l0.4,0.9
		c0.2,0.4,0.2,0.8,0.1,1.2c-0.2,0.3-0.5,0.6-1,0.9C29.9,114.9,29.5,115,29.1,114.9z"/>
	<polygon style="fill:#025830;" points="32.4,119.4 33.7,121.5 34.5,120.9 33.2,118.8 34.2,118.2 35.7,120.6 36.6,120.1 34.4,116.6 
		29.8,119.4 32,123 32.8,122.4 31.3,120 	"/>
	<polygon style="fill:#025830;" points="38.7,123 37.9,122 33.6,125.3 36,128.5 36.8,127.9 35.2,125.7 	"/>
	
		<rect x="37.5" y="128.5" transform="matrix(0.7418 -0.6706 0.6706 0.7418 -76.2236 60.3246)" style="fill:#025830;" width="5.4" height="1.3"/>
	<polygon style="fill:#025830;" points="47.1,132.2 43.4,134.1 43.4,134.1 45,130.2 44,129.3 41.8,134.7 42.9,135.7 48.1,133.1 	"/>
	<polygon style="fill:#025830;" points="50,135.8 52.3,137.5 52.9,136.7 49.6,134.3 46.4,138.6 49.7,141.1 50.3,140.3 48,138.6 
		48.7,137.6 50.7,139.1 51.3,138.3 49.3,136.8 	"/>
	<path style="fill:#025830;" d="M57,139.2l-2.2-1.3l-2.7,4.7l1.1,0.6l0.9-1.6l0.9,0.5l0,2.2l1.2,0.7l0-2.4c0.4,0.1,0.7,0,1-0.1
		c0.3-0.1,0.5-0.4,0.7-0.7c0.3-0.5,0.4-1,0.2-1.4C58,140,57.6,139.6,57,139.2z M56.8,141.2c-0.1,0.2-0.3,0.3-0.5,0.4
		c-0.2,0-0.4,0-0.7-0.2l-0.9-0.5l0.8-1.3l0.9,0.5c0.3,0.2,0.5,0.3,0.6,0.5C57,140.8,57,141,56.8,141.2z"/>
	
		<rect x="57.6" y="143.3" transform="matrix(0.4246 -0.9054 0.9054 0.4246 -95.6797 137.4417)" style="fill:#025830;" width="5.4" height="1.3"/>
	<polygon style="fill:#025830;" points="66.6,147.3 66.6,147.3 65.6,143.3 64.2,142.8 62.4,147.9 63.6,148.3 64.9,144.7 64.9,144.7 
		65.9,149.2 67.1,149.6 68.9,144.5 67.8,144.1 	"/>
	<path style="fill:#025830;" d="M72.3,146.8c0.3-0.3,0.7-0.3,1.1-0.2c0.3,0.1,0.5,0.2,0.7,0.4c0.1,0.2,0.2,0.4,0.2,0.7l1.3,0.3
		c0-0.6-0.2-1.1-0.5-1.5c-0.3-0.4-0.8-0.7-1.4-0.8c-0.8-0.2-1.5-0.1-2.1,0.3c-0.6,0.4-1,1-1.2,1.8c-0.2,0.8-0.1,1.5,0.2,2.1
		c0.3,0.6,0.9,1,1.7,1.2c0.3,0.1,0.6,0.1,0.9,0c0.3-0.1,0.5-0.2,0.7-0.4l-0.1,0.7l1,0.2l0.6-2.8l-2.1-0.5l-0.2,0.9l0.8,0.2l0,0.1
		c-0.1,0.3-0.2,0.4-0.4,0.5c-0.2,0.1-0.5,0.1-0.8,0.1c-0.4-0.1-0.7-0.3-0.9-0.7c-0.2-0.4-0.2-0.8-0.1-1.4
		C71.8,147.5,72,147.1,72.3,146.8z"/>
	<path style="fill:#025830;" d="M83.6,147.1l-2.4-0.1l-0.3,5.4l1.3,0.1l0.1-1.8l1.2,0.1c0.7,0,1.2-0.1,1.6-0.4
		c0.4-0.3,0.6-0.7,0.6-1.3c0-0.6-0.1-1-0.5-1.4C84.8,147.3,84.3,147.1,83.6,147.1z M84.1,149.5c-0.2,0.1-0.4,0.2-0.7,0.2l-1-0.1
		l0.1-1.6l1,0.1c0.3,0,0.6,0.1,0.7,0.2c0.2,0.1,0.2,0.3,0.2,0.6C84.4,149.2,84.3,149.4,84.1,149.5z"/>
	<polygon style="fill:#025830;" points="89.3,151.6 89.2,150.4 91.7,150.3 91.6,149.3 89.2,149.4 89.1,148.2 91.9,148.1 91.9,147 
		87.8,147.2 88,152.7 92.2,152.5 92.1,151.4 	"/>
	<path style="fill:#025830;" d="M95.8,146.6l-1.3,5.7l1.3-0.2l0.3-1.2l2.3-0.4l0.6,1.1l1.3-0.2l-3-5L95.8,146.6z M96.3,149.8
		l0.4-2.1l0,0l1.1,1.9L96.3,149.8z"/>
	<path style="fill:#025830;" d="M105.2,148.2c0,0.3,0,0.5-0.2,0.7c-0.1,0.2-0.3,0.3-0.6,0.4c-0.4,0.1-0.8,0-1.1-0.2
		c-0.3-0.2-0.5-0.6-0.7-1.2c-0.2-0.6-0.2-1,0-1.4c0.1-0.4,0.4-0.6,0.8-0.7c0.3-0.1,0.5-0.1,0.8,0c0.2,0.1,0.4,0.3,0.5,0.6l1.2-0.3
		c-0.3-0.6-0.7-0.9-1.1-1.2c-0.5-0.2-1-0.2-1.7-0.1c-0.8,0.2-1.3,0.6-1.7,1.3s-0.4,1.3-0.2,2.2c0.2,0.8,0.6,1.4,1.2,1.8
		c0.6,0.4,1.3,0.4,2.1,0.2c0.6-0.2,1.1-0.5,1.4-0.9c0.3-0.4,0.4-1,0.4-1.6L105.2,148.2z"/>
	<polygon style="fill:#025830;" points="110.3,147.3 109.9,146.2 112.2,145.3 111.8,144.3 109.5,145.2 109,144.1 111.7,143.1 
		111.3,142.2 107.5,143.7 109.5,148.7 113.3,147.2 113,146.2 	"/>
	<path style="fill:#025830;" d="M120.1,138.2c-0.7-0.2-1.4-0.1-2.1,0.3c-0.7,0.4-1.1,1-1.3,1.7c-0.2,0.7,0,1.4,0.4,2.1
		c0.4,0.7,1,1.2,1.7,1.4c0.7,0.2,1.4,0.1,2.1-0.3c0.7-0.4,1.1-1,1.3-1.7c0.2-0.7,0-1.4-0.4-2.1S120.8,138.4,120.1,138.2z
		 M120.4,142.5c-0.4,0.2-0.7,0.3-1.1,0.1c-0.4-0.1-0.7-0.5-1-1c-0.3-0.5-0.4-0.9-0.4-1.3s0.2-0.7,0.6-0.9c0.4-0.2,0.7-0.3,1.1-0.1
		c0.4,0.1,0.7,0.5,1,1c0.3,0.5,0.4,0.9,0.4,1.3C121,141.9,120.7,142.2,120.4,142.5z"/>
	<polygon style="fill:#025830;" points="126.5,135.7 124.6,137.1 123.7,136 125.9,134.4 125.3,133.6 122.1,136 125.4,140.3 
		126.4,139.5 125.2,137.9 127.1,136.5 	"/>
	<polygon style="fill:#025830;" points="132.1,127 133.9,130.4 133.9,130.4 130.4,128.9 129.1,130.2 133.1,133.9 133.9,133 
		131.1,130.4 131.1,130.4 134.8,132 135.5,131.3 133.6,127.7 133.6,127.7 136.4,130.3 137.3,129.4 133.3,125.7 	"/>
	
		<rect x="136.6" y="122.2" transform="matrix(0.6045 -0.7966 0.7966 0.6045 -45.2207 158.7689)" style="fill:#025830;" width="1.3" height="5.4"/>
	<polygon style="fill:#025830;" points="138.9,117.6 141.8,119.4 141.8,119.4 137.7,119.5 136.9,120.8 141.6,123.7 142.2,122.6 
		139,120.6 139,120.6 143.6,120.5 144.2,119.4 139.6,116.6 	"/>
	<path style="fill:#025830;" d="M145.3,111.1c-0.7-0.3-1.4-0.4-2.1-0.1c-0.7,0.2-1.2,0.8-1.5,1.5l-0.9,2l4.9,2.3l0.9-2
		c0.4-0.8,0.4-1.5,0.2-2.1C146.5,112,146,111.5,145.3,111.1z M145.6,114.3l-0.4,0.9l-3.1-1.4l0.4-0.9c0.2-0.4,0.5-0.7,0.8-0.8
		c0.4-0.1,0.8,0,1.3,0.2c0.5,0.2,0.8,0.5,1,0.9C145.9,113.5,145.8,113.9,145.6,114.3z"/>
	<path style="fill:#025830;" d="M73,83.1c0-3-0.9-5.3-2.8-6.8c-1.9-1.5-4.5-2.3-8-2.3H49.4v26.3H57v-8.1h5.2c3.4,0,6.1-0.8,8-2.3
		C72,88.3,73,86,73,83.1z M61.2,86.2H57v-6.4h4.2c1.5,0,2.5,0.3,3.2,0.8c0.7,0.5,1,1.4,1,2.4C65.4,85.2,64,86.2,61.2,86.2z"/>
	<polygon style="fill:#025830;" points="101,73.9 75.7,73.9 75.7,79.8 84.5,79.8 84.5,100.2 92.2,100.2 92.2,79.8 101,79.8 	"/>
	<polygon style="fill:#025830;" points="125.8,94.3 113.2,94.3 113.2,73.9 105.4,73.9 105.4,100.2 125.8,100.2 	"/>
	<path style="fill:#025830;" d="M80.8,58.9c0.7,0,1.2-0.2,1.6-0.5c0.4-0.4,0.6-0.9,0.6-1.5v-2.9h-1.2v2.9c0,0.4-0.1,0.7-0.3,0.9
		c-0.2,0.2-0.4,0.3-0.8,0.3s-0.6-0.1-0.7-0.3c-0.2-0.2-0.2-0.5-0.2-0.9v-2.9h-1.2v2.9c0,0.7,0.2,1.2,0.6,1.5
		C79.6,58.7,80.1,58.9,80.8,58.9z"/>
	<path style="fill:#025830;" d="M86.8,58c-0.3,0-0.6-0.1-0.8-0.2c-0.2-0.1-0.3-0.3-0.3-0.5h-1.1c0,0.5,0.3,0.9,0.7,1.2
		c0.4,0.3,0.9,0.4,1.6,0.4c0.6,0,1.1-0.1,1.4-0.4c0.4-0.3,0.6-0.6,0.6-1.1c0-0.4-0.1-0.7-0.3-0.9c-0.2-0.2-0.6-0.4-1-0.5l-0.9-0.2
		c-0.3-0.1-0.5-0.1-0.6-0.2c-0.1-0.1-0.1-0.2-0.1-0.3c0-0.2,0.1-0.3,0.2-0.4c0.1-0.1,0.3-0.2,0.6-0.2c0.3,0,0.5,0.1,0.7,0.2
		c0.2,0.1,0.3,0.3,0.3,0.5h1.1c0-0.5-0.3-0.8-0.6-1.1c-0.4-0.3-0.8-0.4-1.5-0.4c-0.6,0-1,0.1-1.4,0.4c-0.4,0.3-0.5,0.7-0.5,1.1
		c0,0.4,0.1,0.7,0.3,0.9c0.2,0.2,0.6,0.4,1,0.5l0.9,0.2c0.3,0,0.5,0.1,0.6,0.2c0.1,0.1,0.2,0.2,0.2,0.4c0,0.2-0.1,0.3-0.2,0.4
		C87.3,58,87.1,58,86.8,58z"/>
	<path style="fill:#025830;" d="M91.3,58.8l0.4-1h2.1l0.4,1h1.2l-2-4.9h-1.3l-1.9,4.9H91.3z M92.7,55L92.7,55l0.7,1.8H92L92.7,55z"
		/>
	<path style="fill:#025830;" d="M65,121.7c-0.3,0-0.6-0.1-0.8-0.2c-0.2-0.1-0.3-0.3-0.3-0.5h-1.1c0,0.5,0.3,0.9,0.7,1.2
		c0.4,0.3,0.9,0.4,1.6,0.4c0.6,0,1.1-0.1,1.4-0.4c0.4-0.3,0.6-0.6,0.6-1.1c0-0.4-0.1-0.7-0.3-0.9c-0.2-0.2-0.6-0.4-1-0.5l-0.9-0.2
		c-0.3-0.1-0.5-0.1-0.6-0.2c-0.1-0.1-0.1-0.2-0.1-0.3c0-0.2,0.1-0.3,0.2-0.4c0.1-0.1,0.3-0.2,0.6-0.2c0.3,0,0.5,0.1,0.7,0.2
		c0.2,0.1,0.3,0.3,0.3,0.5H67c0-0.5-0.3-0.8-0.6-1.1c-0.4-0.3-0.8-0.4-1.5-0.4c-0.6,0-1,0.1-1.4,0.4c-0.4,0.3-0.5,0.7-0.5,1.1
		c0,0.4,0.1,0.7,0.3,0.9c0.2,0.2,0.6,0.4,1,0.5l0.9,0.2c0.3,0,0.5,0.1,0.6,0.2c0.1,0.1,0.2,0.2,0.2,0.4c0,0.2-0.1,0.3-0.2,0.4
		C65.5,121.7,65.3,121.7,65,121.7z"/>
	<rect x="68.7" y="117.6" style="fill:#025830;" width="1.2" height="4.9"/>
	<polygon style="fill:#025830;" points="75.3,120.7 75.3,120.7 73.2,117.6 71.9,117.6 71.9,122.5 73,122.5 73,119 73,119 
		75.3,122.5 76.4,122.5 76.4,117.6 75.3,117.6 	"/>
	<path style="fill:#025830;" d="M82.6,120.9h-1.2c0,0.3-0.2,0.5-0.3,0.6c-0.2,0.1-0.4,0.2-0.7,0.2c-0.4,0-0.7-0.1-0.9-0.4
		c-0.2-0.3-0.3-0.7-0.3-1.2c0-0.5,0.1-0.9,0.3-1.2c0.2-0.3,0.5-0.4,0.9-0.4c0.3,0,0.5,0.1,0.7,0.2c0.2,0.1,0.3,0.3,0.3,0.6h1.2
		c-0.1-0.6-0.3-1-0.7-1.3c-0.4-0.3-0.8-0.4-1.4-0.4c-0.7,0-1.3,0.2-1.7,0.7c-0.4,0.5-0.7,1.1-0.7,1.8c0,0.8,0.2,1.4,0.7,1.8
		c0.4,0.5,1,0.7,1.7,0.7c0.6,0,1.1-0.1,1.4-0.4C82.3,121.8,82.5,121.4,82.6,120.9z"/>
	<polygon style="fill:#025830;" points="88,121.6 85.4,121.6 85.4,120.5 87.7,120.5 87.7,119.6 85.4,119.6 85.4,118.5 88,118.5 
		88,117.6 84.3,117.6 84.3,122.5 88,122.5 	"/>
	<path style="fill:#025830;" d="M95.4,122.5h1.2v-4.9h-0.8c-0.1,0.3-0.2,0.4-0.4,0.6c-0.2,0.1-0.5,0.2-0.9,0.2v0.8h1V122.5z"/>
	<path style="fill:#025830;" d="M100.3,121.7c-0.2,0-0.3,0-0.5-0.1s-0.2-0.2-0.3-0.4h-1.1c0.1,0.4,0.2,0.8,0.6,1
		c0.3,0.3,0.7,0.4,1.2,0.4c0.6,0,1.1-0.2,1.5-0.7c0.4-0.5,0.6-1.1,0.6-1.9c0-0.7-0.2-1.3-0.6-1.8c-0.4-0.4-0.9-0.7-1.5-0.7
		c-0.6,0-1,0.2-1.4,0.5c-0.4,0.3-0.5,0.7-0.5,1.2c0,0.5,0.2,0.9,0.5,1.2c0.3,0.3,0.7,0.5,1.2,0.5c0.3,0,0.5-0.1,0.7-0.2
		c0.2-0.1,0.4-0.3,0.5-0.4c0,0.4-0.1,0.8-0.3,1S100.6,121.7,100.3,121.7z M100.9,119.8c-0.2,0.2-0.4,0.2-0.6,0.2
		c-0.2,0-0.4-0.1-0.6-0.2c-0.2-0.2-0.2-0.4-0.2-0.6c0-0.3,0.1-0.5,0.2-0.6c0.1-0.2,0.3-0.2,0.6-0.2c0.2,0,0.4,0.1,0.6,0.2
		c0.2,0.2,0.2,0.4,0.2,0.6C101.1,119.5,101.1,119.7,100.9,119.8z"/>
	<path style="fill:#025830;" d="M107.3,119.6c-0.3-0.3-0.7-0.5-1.2-0.5c-0.2,0-0.4,0-0.6,0.1c-0.2,0.1-0.3,0.1-0.4,0.2l0.1-1h2.2
		v-0.9h-3.1l-0.3,2.8h1.1c0.1-0.1,0.2-0.2,0.3-0.3c0.1-0.1,0.3-0.1,0.4-0.1c0.2,0,0.4,0.1,0.6,0.2c0.1,0.2,0.2,0.4,0.2,0.6
		c0,0.2-0.1,0.4-0.2,0.6c-0.1,0.2-0.3,0.2-0.6,0.2c-0.2,0-0.4-0.1-0.6-0.2c-0.1-0.1-0.2-0.3-0.2-0.5h-1.2c0,0.5,0.2,0.9,0.6,1.2
		c0.4,0.3,0.8,0.4,1.4,0.4c0.6,0,1-0.2,1.4-0.5c0.3-0.3,0.5-0.7,0.5-1.2S107.6,120,107.3,119.6z"/>
	<path style="fill:#025830;" d="M111.2,122.5v-4.9h-0.8c-0.1,0.3-0.2,0.4-0.4,0.6c-0.2,0.1-0.5,0.2-0.9,0.2v0.8h1v3.4H111.2z"/>
</g>
</svg>
