<svg xmlns="http://www.w3.org/2000/svg" width="44.692" height="44.692" viewBox="0 0 44.692 44.692">
  <g id="_174544_facebook_media_social_web_icon" data-name="174544_facebook_media_social_web_icon" transform="translate(-48 -64)">
    <path id="Path_31" data-name="Path 31" d="M85.817,64H54.876A6.876,6.876,0,0,0,48,70.876v30.941a6.876,6.876,0,0,0,6.876,6.876H68.627V93.222H61.751V86.346h6.876V78.611a6.016,6.016,0,0,1,6.016-6.016H84.1V79.47H77.222c-1.253,0-1.719.483-1.719,1.719v5.157h6.876v6.876H75.5v15.47H85.817a6.876,6.876,0,0,0,6.876-6.876V70.876A6.876,6.876,0,0,0,85.817,64Z" fill="#4d4d4d"/>
  </g>
</svg>