<svg xmlns="http://www.w3.org/2000/svg" width="44.692" height="44.692" viewBox="0 0 44.692 44.692">
  <path id="_104828_linked_in_linked_in_icon" data-name="104828_linked_in_linked in_icon" d="M50.132,12H14.56A4.56,4.56,0,0,0,10,16.56V52.132a4.56,4.56,0,0,0,4.56,4.56H50.132a4.56,4.56,0,0,0,4.56-4.56V16.56A4.56,4.56,0,0,0,50.132,12ZM23.859,48.183h-6v-19.3h6ZM20.819,26.51a3,3,0,1,1,.079-6,3.007,3.007,0,1,1-.079,6ZM46.992,48.183h-6v-10.7c0-2.487-.868-4.185-3.04-4.185a3.3,3.3,0,0,0-3.079,2.25,4.32,4.32,0,0,0-.2,1.5V48.183h-6V35.037c0-2.408-.079-4.422-.158-6.158h5.211L34,31.563h.119a6.933,6.933,0,0,1,5.961-3.119c3.948,0,6.909,2.645,6.909,8.33V48.183Z" transform="translate(-10 -12)" fill="#4d4d4d"/>
</svg>